<svg xmlns="http://www.w3.org/2000/svg" xml:space="preserve" viewBox="0 0 380 380"><path fill="#02A7FE" d="M98 1h283c0 96.02 0 192.042-.465 288.531-7.58.635-15.08 2.454-16.22-8.802-.47-4.632-5.952-5.026-9.32-1.351-2.516 2.747-4.965 5.557-7.38 8.268-4.797-2.786-5.34-6.22-2.835-10.168-.505-.42-.743-.787-.993-.796-.99-.035-1.983.042-2.903-.255 2.865-5.664 6.138-10.805 8.354-16.366 5.257-13.192 6.305-26.93 2.262-40.564-2.24-7.557-6.012-14.66-8.893-22.325 16.31-35.607 7.823-80.228-23.58-107.335-30.584-26.401-65.353-31.144-102.509-14.986-8.745 3.803-17.2 8.545-23.704 16.342-1.717 1.65-3.108 3.245-4.98 4.834-13.194-.192-25.384 2.64-37.393 6.04 2.62-1.54 5.18-2.82 7.83-3.878 3.94-1.573 7.941-2.99 11.917-4.473l-.513-.999 13.27 1.36q.254-1.115.507-2.23c-3.25-1.287-6.502-2.573-9.516-3.765l2.469-4.917c-1.871-.384-3.742-.771-5.614-1.148-.16-.032-.332 0-.498.009-10.244.57-10.244.57-10.293-9.95-.002-.334.003-.666-.002-.999-.091-5.989-1.059-6.975-6.966-7.073-1.33-.022-2.664-.067-3.992-.002-3.21.16-4.835-1.082-5.15-4.527-.503-5.509-3.794-8.833-9.305-9.357-3.4-.324-4.488-1.861-4.626-5.095-.528-12.396-.6-12.438-12.963-12.998-2.842-.13-4.557-.808-5.077-4.089-1.08-6.816-3.038-8.727-9.879-9.867-2.909-.485-4.048-1.825-4.028-4.593C98.042 9.318 98.007 5.16 98 1"/><path fill="#019FFE" d="M97.531 1c.476 4.159.51 8.318.48 12.476-.019 2.768 1.12 4.108 4.03 4.593 6.84 1.14 8.797 3.051 9.878 9.867.52 3.28 2.235 3.96 5.077 4.089 12.363.56 12.435.602 12.963 12.998.138 3.234 1.226 4.771 4.626 5.095 5.51.524 8.802 3.848 9.305 9.357.315 3.445 1.94 4.686 5.15 4.527 1.328-.065 2.662-.02 3.992.002 5.907.098 6.875 1.084 6.966 7.073.005.333 0 .665.002.998.05 10.522.05 10.522 10.293 9.95.166-.008.339-.04.498-.008 1.872.377 3.743.764 5.614 1.148l-2.469 4.917 9.516 3.764-.507 2.231-13.27-1.36.513 1c-3.976 1.482-7.978 2.899-11.917 4.472-2.65 1.058-5.21 2.338-7.917 3.891-.108.373-.173.211-.566.143-1.834.73-3.277 1.53-4.806 2.528-.322.435-.59.48-1.202.183-3.81-1.688-4.734.792-5.76 3.5-.357.487-.664.583-1.31.314-5.275-.447-13.715 6.027-15.481 11.488.01.025-.027.064-.398.022-5.203 4.29-11.174 7.878-14.608 13.125-5.5 8.403-9.186 17.976-13.962 26.881-.889 1.658-3.3 3.554-5.005 3.551-11.973-.024-22.925 3.478-33.389 8.865-3.358 1.729-6.307 4.447-9.808 5.655-4.65 1.605-7.794 4.648-10.203 8.499-2.156 3.448-5.257 4.983-7.558 2.752-3.56-3.45-6.682-7.388-10.44-10.59C11.44 175.23 8.732 168.36 1 170V1zM33.82 178.317l.405-.566c-.199.12-.397.24-.405.566"/><path fill="#019EFE" d="M340.812 276.76c.992-.036 1.985-.113 2.975-.078.25.009.488.375.993.796-2.505 3.947-1.962 7.382 2.835 10.168 2.415-2.711 4.864-5.521 7.38-8.268 3.368-3.675 8.85-3.281 9.32 1.35 1.14 11.257 8.64 9.438 16.22 9.272.465 30.286.465 60.572.465 91-62.687 0-125.375 0-188.555-.372-3.483-4.597-5.618-10.214-9.673-12.707-5.446-3.35-10.137-6.45-12.38-12.674-.542-1.502-2.312-2.65-3.687-3.747-5.11-4.083-10.405-7.942-15.405-12.153-3.156-2.656-5.926-5.773-8.84-8.713-2.228-2.248-4.41-4.542-6.612-6.815l.738-1.82c5.145 0 10.307.26 15.432-.07 5.42-.35 10.805-1.258 16.205-1.93 4.905-.612 10.234 1.451 15.616-1.993l-7.928-2.522c4.322-1.458 8.413-1.8 12.454-2.45 5.93-.952 10.775-6.182 17.756-3.731 2.563.9 6.033-1.215 9.092-1.23 24.154-.123 48.312.198 72.458-.253 6.295-.117 12.615-2.226 18.786-3.92 2.302-.633 4.212-2.692 6.306-4.089.006.013.027.007.428.044 2.745-1.411 5.09-2.86 7.496-4.252.06.057-.095-.001.279.035 1.906-1.2 3.438-2.436 4.98-3.68.01-.007.03-.021.373-.038 1.062-.735 1.782-1.454 2.516-2.123.014.05-.089.073.11.002.464-.181.67-.36 1.041-.798.467-.5.708-.81.964-1.087.014.032-.056.03.148-.118.412-.408.62-.669.811-.89-.018.038-.026-.047.334-.048 1.116-.983 1.874-1.966 2.655-2.956.025-.007-.003.036.199-.11.455-.366.663-.623.838-.881.012.035-.06.015.146-.13.416-.405.628-.664.817-.89-.021.033-.033-.044.323-.082 1.43-1.692 2.505-3.347 3.589-5.012.01-.009.002-.037.002-.037M192.25 364.255c.674 1.815.951 4.015 2.184 5.288.645.666 2.97-.296 4.536-.523-.234-1.348-.027-3.43-.793-3.89-1.611-.967-3.733-1.08-5.927-.875m-16.172-13.776c1.451 1.14 2.827 2.416 4.421 3.296.3.166 2.233-1.668 2.122-1.87-.873-1.585-1.904-3.185-3.272-4.317-.3-.249-2.137 1.358-3.271 2.89"/><path fill="#0297FB" d="M312.757 299.799c-2.088 1.409-3.998 3.468-6.3 4.1-6.171 1.695-12.491 3.804-18.786 3.921-24.146.45-48.304.13-72.458.252-3.06.016-6.529 2.13-9.092 1.23-6.98-2.45-11.825 2.78-17.756 3.733-4.041.649-8.132.991-12.454 2.45l7.928 2.521c-5.382 3.444-10.71 1.381-15.616 1.993-5.4.672-10.785 1.58-16.205 1.93-5.125.33-10.287.07-15.432.07l-.738 1.82c2.202 2.273 4.384 4.567 6.612 6.815 2.914 2.94 5.684 6.057 8.84 8.713 5 4.211 10.295 8.07 15.405 12.153 1.375 1.098 3.145 2.245 3.687 3.747 2.243 6.224 6.934 9.325 12.38 12.674 4.055 2.493 6.19 8.11 9.204 12.707C128.403 381 64.806 381 1 381V170.469c7.732-2.11 10.44 4.761 14.858 8.527 3.758 3.202 6.88 7.14 10.44 10.59 2.3 2.23 5.402.696 7.558-2.752 2.41-3.851 5.553-6.894 10.203-8.499 3.5-1.208 6.45-3.926 9.808-5.655 10.464-5.387 21.416-8.889 33.39-8.865 1.704.003 4.115-1.893 5.004-3.55 4.776-8.906 8.463-18.479 13.962-26.882 3.434-5.247 9.405-8.835 14.5-12.82-11.833 12.08-21.504 25.368-26.265 41.789-.806 2.778-2.395 3.744-5.403 3.798-16.253.291-31.052 4.903-43.951 15.16-17.27 13.731-26.543 31.6-27.067 53.56-.909 38.158 31.128 70.939 69.511 71.061 64.78.207 129.561.113 194.342-.019 5.706-.011 11.474-.908 17.095-2 4.68-.909 9.188-2.708 13.772-4.113"/><path fill="#FEFFFE" d="M312.763 299.811c-4.59 1.393-9.097 3.192-13.778 4.1-5.621 1.093-11.389 1.99-17.095 2.001-64.78.132-129.562.226-194.342.02-38.383-.123-70.42-32.904-69.51-71.061.523-21.961 9.796-39.83 27.066-53.561 12.899-10.257 27.698-14.869 43.951-15.16 3.008-.054 4.597-1.02 5.403-3.798 4.76-16.42 14.432-29.71 26.636-41.746.108-.306.144-.345.468-.433 5.36-3.8 10.399-7.512 15.437-11.225.357.07.664-.027 1.366-.535 2.207-1.275 3.967-2.302 5.727-3.328.3.146.568.101 1.261-.356 1.915-.96 3.371-1.699 4.828-2.438 0 0 .065.162.152.15 12.117-3.774 24.307-6.606 37.887-6.384 5.156.428 9.446.82 14.06 1.4.816.225 1.308.261 2.098.46 1.403.267 2.509.37 3.927.663.793.228 1.272.268 2.03.545 1.708.628 3.137 1.02 4.823 1.641 10.952 4.305 21.354 8.57 30.396 16.168 14.706 12.359 26.14 26.639 31.353 45.362.873 3.134 2.616 3.863 5.721 3.952 12.106.345 23.999 2.557 34.223 9.195 7.866 5.106 14.748 11.729 22.098 17.931.276.476.521.7.852 1.217.925 1.177 1.765 2.058 2.605 2.94 3.082 7.307 6.854 14.409 9.094 21.966 4.043 13.634 2.995 27.372-2.262 40.564-2.216 5.561-5.49 10.702-8.354 16.366-.072.333-.064.361-.374.503-1.42 1.734-2.533 3.325-3.645 4.917 0 0 .012.077-.24.105-.418.343-.584.658-.75.974 0 0 .072.02-.214.039-.446.337-.606.655-.765.973 0 0 .027-.043-.297.046-1.122 1.017-1.919 1.946-2.716 2.875 0 0 .008.085-.248.103-.418.34-.58.661-.74.982 0 0 .07.002-.203-.01-.598.346-.924.707-1.5 1.223-.315.343-.38.528-.446.713 0 0 .103-.022-.224-.022-1.067.696-1.807 1.392-2.546 2.089 0 0-.02.014-.361.065-1.902 1.234-3.462 2.417-5.023 3.6 0 0 .155.058-.251.06-2.788 1.386-5.17 2.77-7.55 4.156 0 0-.022.006-.028-.007"/><path fill="#F9B428" d="M342.607 197.172c-1.041-.523-1.88-1.404-2.7-2.693.02-.408.23-.634.492-.655.707-.293 1.151-.565 1.747-1.17 1.743-6.774 3.537-13.175 4.787-19.68.323-1.681-.677-3.954-1.74-5.49-1.99-2.875-3.359-5.343-.163-8.303.699-.647.57-2.187.823-3.316-1.263.232-2.674.198-3.736.79-.682.38-.85 1.68-1.352 2.797-2.504-3.425-3.933-5.803-5.777-7.797-2.418-2.614-5.587-4.62-7.638-7.46-1.783-2.471-3.335-4.026-6.573-4.434-5.503-.693-11.463-6.395-10.086-10.03 2.631-6.95-1.985-8.44-6.414-10.463-3.812-1.74-6.548-4.155-7.507-8.585-.692-3.194-2.68-5.192-6.65-3.885-1.43.47-3.962.148-4.87-.841-2.726-2.97-4.852-6.484-7.31-9.71-1.12-1.47-2.268-3.646-3.751-3.986-6.915-1.586-10.139-7.5-15.525-11.556l3.57-2.708c-1.905-3.266-3.132-5.88-7.3-7.784-4.809-2.194-7.493-1.781-11.02.968-.561.437-1.63.551-2.366.384-7.873-1.792-14.727 1.198-21.905 4.48-3.462 1.553-6.678 2.88-9.622 4.657-5.645 3.407-11.136 7.07-16.739 10.579l-.142-.146c6.178-7.74 14.633-12.48 23.378-16.284 37.156-16.158 71.925-11.415 102.51 14.986 31.402 27.107 39.889 71.728 23.58 107.335"/><path fill="#F9B428" d="M201.956 97.27c-4.29-.392-8.58-.785-13.255-1.208 1.005-1.624 2.396-3.218 4.113-4.87.326-.057.421.04.378.392.66 1.407 1.129 2.929 2.113 3.422 2.074 1.04 4.418 1.542 6.651 2.264"/><path fill="#0297FB" d="M136.71 108.748c-4.75 3.913-9.787 7.625-15.158 11.4 1.443-5.373 9.883-11.847 15.159-11.4M143.78 104.934c-1.448 1.177-3.208 2.204-5.313 3.251.58-2.459 1.504-4.94 5.313-3.251M149.788 102.223c-1.064.807-2.52 1.547-4.348 2.308 1.071-.777 2.514-1.577 4.348-2.308M33.725 178.214c.103-.224.301-.343.5-.463-.135.189-.27.377-.5.463M192.39 363.92c2.054.13 4.176.243 5.787 1.21.766.46.56 2.542.793 3.89-1.566.227-3.891 1.189-4.536.523-1.233-1.273-1.51-3.473-2.043-5.623M176.08 350.089c1.132-1.143 2.97-2.75 3.27-2.501 1.367 1.132 2.398 2.732 3.271 4.318.111.2-1.822 2.035-2.122 1.87-1.594-.881-2.97-2.158-4.418-3.687M313.19 299.855c1.982-1.422 4.363-2.807 7.09-4.25-1.999 1.39-4.344 2.839-7.09 4.25"/><path fill="#02A7FE" d="M337.221 281.81c.756-1.555 1.868-3.146 3.28-4.87-.775 1.522-1.85 3.177-3.28 4.87"/><path fill="#0297FB" d="M320.966 295.638c1.187-1.22 2.747-2.402 4.64-3.628-1.202 1.192-2.734 2.429-4.64 3.628"/><path fill="#02A7FE" d="M332.243 286.858c.437-.928 1.234-1.857 2.331-2.867-.457.9-1.215 1.884-2.331 2.867"/><path fill="#0297FB" d="M326.319 291.92c.396-.68 1.136-1.376 2.188-2.123-.406.669-1.126 1.388-2.188 2.123"/><path fill="#02A7FE" d="M329.442 289c.326-.36.652-.72 1.236-1.099.016.29-.225.6-.765 1.045-.298.136-.47.055-.47.055M335.097 283.792c-.042-.172.118-.49.552-.862.11.239-.097.496-.552.862M331.098 287.796c-.042-.173.12-.494.555-.872.066.203-.143.464-.555.872"/><path fill="#0297FB" d="M329.193 289.157c.25-.156.422-.075.495-.02-.073.302-.279.481-.743.662-.133-.114-.068-.3.248-.642"/><path fill="#02A7FE" d="M336.08 282.78c-.039-.17.127-.485.566-.861.063.198-.149.457-.565.862"/><path fill="#FBA81F" d="M202.28 97.458c-2.557-.91-4.9-1.412-6.975-2.452-.984-.493-1.453-2.015-2.066-3.374 5.646-3.86 11.137-7.523 16.782-10.93 2.944-1.777 6.16-3.104 9.61-4.258.652 3.159.178 6.38 1.449 8.605 1.369 2.396 4.373 3.857 6.664 5.726 2.502 2.041 4.71 4.792 7.567 5.973 5.741 2.375 6.29 3.274 3.01 7.372 4.305 2.891 8.683 5.677 12.886 8.707 3.143 2.265 5.793 5.338 9.15 7.15 3.564 1.925 5.474 4.334 6.293 8.253 1.041 4.979 2.693 9.622 9.138 10.162 1.508.126 2.931 2 4.276 3.202 3.045 2.72 5.569 6.625 9.11 8.067 7.817 3.182 11.42 10.292 17.104 15.072 2.32.91 4.975 1.376 6.892 2.822 4.31 3.251 8.452 6.787 12.296 10.58 4.748 4.683 9.124 9.744 13.6 14.723-.06.08-.148.262-.148.262-7.32-5.948-14.201-12.57-22.067-17.677-10.224-6.638-22.117-8.85-34.223-9.195-3.105-.089-4.848-.818-5.72-3.952-5.215-18.723-16.648-33.003-31.354-45.362-9.042-7.598-19.444-11.863-30.561-16.455-1.928-.875-3.432-1.233-4.937-1.59-.48-.04-.958-.081-1.897-.548-1.665-.48-2.872-.533-4.08-.586-.491-.037-.983-.073-1.799-.297"/><path fill="#F9B428" d="M210.335 99.125c1.226.121 2.73.479 4.4 1.123-1.263-.104-2.692-.495-4.4-1.123M204.378 97.917c.909-.109 2.116-.055 3.468.236-.96.135-2.065.03-3.468-.236M339.82 194.183c-.35-.11-.595-.333-.871-.809-.03-.254.058-.435.335-.45.278-.014.724.085.75.295s.103.626.103.626z"/><path fill="#FEAD1E" d="M340.008 193.009s-.446-.099-.664-.166c-4.754-4.964-9.13-10.025-13.878-14.709-3.844-3.792-7.986-7.328-12.296-10.579-1.917-1.446-4.572-1.912-6.892-2.822-5.684-4.78-9.287-11.89-17.103-15.072-3.542-1.442-6.066-5.347-9.11-8.067-1.346-1.202-2.769-3.076-4.277-3.202-6.445-.54-8.097-5.183-9.138-10.162-.82-3.92-2.729-6.328-6.293-8.253-3.357-1.812-6.007-4.885-9.15-7.15-4.203-3.03-8.581-5.816-12.885-8.707 3.279-4.098 2.73-4.997-3.011-7.372-2.857-1.181-5.065-3.932-7.567-5.973-2.29-1.869-5.295-3.33-6.664-5.726-1.271-2.224-.797-5.446-1.08-8.627 6.82-3.659 13.675-6.649 21.548-4.857.736.167 1.805.053 2.366-.384 3.527-2.75 6.211-3.162 11.02-.968 4.168 1.903 5.395 4.518 7.3 7.784l-3.57 2.708c5.386 4.056 8.61 9.97 15.525 11.556 1.483.34 2.63 2.516 3.75 3.986 2.46 3.226 4.585 6.74 7.311 9.71.908.989 3.44 1.311 4.87.84 3.97-1.306 5.958.692 6.65 3.886.959 4.43 3.695 6.844 7.507 8.585 4.429 2.022 9.045 3.512 6.414 10.463-1.377 3.635 4.583 9.337 10.086 10.03 3.238.408 4.79 1.963 6.573 4.433 2.05 2.842 5.22 4.847 7.638 7.46 1.844 1.995 3.273 4.373 5.777 7.798.501-1.116.67-2.417 1.352-2.797 1.062-.592 2.473-.558 3.736-.79-.253 1.13-.124 2.67-.823 3.316-3.196 2.96-1.827 5.428.163 8.302 1.063 1.537 2.063 3.81 1.74 5.49-1.25 6.506-3.044 12.907-5.118 19.685-.924.342-1.366.347-1.807.35M236.198 77.807l-1.195-.225-.024.814c.402-.057.804-.115 1.22-.589"/><path fill="#FBA81F" d="M340.034 193.219c.415-.214.857-.219 1.63-.227-.114.267-.558.539-1.265.832-.262.02-.34-.395-.365-.605"/><path fill="#F9B428" d="M236.192 78.014c-.409.266-.81.324-1.213.381l.024-.814c.398.075.797.15 1.189.433"/></svg>